REM DIRINDEX 1\2,1\3,1\4,1\5\6,1\5\7,1\8
REM DIRNAME cjc115,folder01,folder02,folder03,folder04,folder05,folder06,folder07
TITLE ""
FILE "101 Åy101ÅzUnit6 (1141 deliberate_1152 compile).mp3" MP3
  TRACK 01 AUDIO
    TITLE "0:"
    INDEX 01 00:00:00
  TRACK 02 AUDIO
    TITLE "2:cjc115_3946"
    INDEX 01 00:00:07
  TRACK 03 AUDIO
    TITLE "0:"
    INDEX 01 00:01:21
  TRACK 04 AUDIO
    TITLE "3:cjc115_3947"
    INDEX 01 00:01:34
  TRACK 05 AUDIO
    TITLE "0:"
    INDEX 01 00:02:38
  TRACK 06 AUDIO
    TITLE "4:cjc115_3948"
    INDEX 01 00:02:49
  TRACK 07 AUDIO
    TITLE "0:"
    INDEX 01 00:05:67
  TRACK 08 AUDIO
    TITLE "2:cjc115_3949"
    INDEX 01 00:07:02
  TRACK 09 AUDIO
    TITLE "0:"
    INDEX 01 00:08:19
  TRACK 10 AUDIO
    TITLE "3:cjc115_3950"
    INDEX 01 00:08:24
  TRACK 11 AUDIO
    TITLE "0:"
    INDEX 01 00:10:37
  TRACK 12 AUDIO
    TITLE "4:cjc115_3951"
    INDEX 01 00:10:45
  TRACK 13 AUDIO
    TITLE "0:"
    INDEX 01 00:14:31
  TRACK 14 AUDIO
    TITLE "2:cjc115_3952"
    INDEX 01 00:15:42
  TRACK 15 AUDIO
    TITLE "0:"
    INDEX 01 00:16:61
  TRACK 16 AUDIO
    TITLE "3:cjc115_3953"
    INDEX 01 00:16:69
  TRACK 17 AUDIO
    TITLE "0:"
    INDEX 01 00:20:08
  TRACK 18 AUDIO
    TITLE "4:cjc115_3954"
    INDEX 01 00:20:26
  TRACK 19 AUDIO
    TITLE "0:"
    INDEX 01 00:23:59
  TRACK 20 AUDIO
    TITLE "2:cjc115_3955"
    INDEX 01 00:24:67
  TRACK 21 AUDIO
    TITLE "0:"
    INDEX 01 00:25:70
  TRACK 22 AUDIO
    TITLE "3:cjc115_3956"
    INDEX 01 00:25:72
  TRACK 23 AUDIO
    TITLE "0:"
    INDEX 01 00:26:62
  TRACK 24 AUDIO
    TITLE "4:cjc115_3957"
    INDEX 01 00:26:69
  TRACK 25 AUDIO
    TITLE "0:"
    INDEX 01 00:28:64
  TRACK 26 AUDIO
    TITLE "2:cjc115_3958"
    INDEX 01 00:29:72
  TRACK 27 AUDIO
    TITLE "0:"
    INDEX 01 00:31:04
  TRACK 28 AUDIO
    TITLE "3:cjc115_3959"
    INDEX 01 00:31:10
  TRACK 29 AUDIO
    TITLE "0:"
    INDEX 01 00:33:07
  TRACK 30 AUDIO
    TITLE "4:cjc115_3960"
    INDEX 01 00:33:15
  TRACK 31 AUDIO
    TITLE "0:"
    INDEX 01 00:36:64
  TRACK 32 AUDIO
    TITLE "2:cjc115_3961"
    INDEX 01 00:37:73
  TRACK 33 AUDIO
    TITLE "0:"
    INDEX 01 00:39:03
  TRACK 34 AUDIO
    TITLE "3:cjc115_3962"
    INDEX 01 00:39:11
  TRACK 35 AUDIO
    TITLE "0:"
    INDEX 01 00:40:58
  TRACK 36 AUDIO
    TITLE "4:cjc115_3963"
    INDEX 01 00:40:64
  TRACK 37 AUDIO
    TITLE "0:"
    INDEX 01 00:44:40
  TRACK 38 AUDIO
    TITLE "2:cjc115_3964"
    INDEX 01 00:45:41
  TRACK 39 AUDIO
    TITLE "0:"
    INDEX 01 00:46:70
  TRACK 40 AUDIO
    TITLE "3:cjc115_3965"
    INDEX 01 00:47:03
  TRACK 41 AUDIO
    TITLE "0:"
    INDEX 01 00:50:37
  TRACK 42 AUDIO
    TITLE "4:cjc115_3966"
    INDEX 01 00:50:48
  TRACK 43 AUDIO
    TITLE "0:"
    INDEX 01 00:54:64
  TRACK 44 AUDIO
    TITLE "2:cjc115_3967"
    INDEX 01 00:55:73
  TRACK 45 AUDIO
    TITLE "0:"
    INDEX 01 00:57:17
  TRACK 46 AUDIO
    TITLE "3:cjc115_3968"
    INDEX 01 00:57:23
  TRACK 47 AUDIO
    TITLE "0:"
    INDEX 01 00:59:34
  TRACK 48 AUDIO
    TITLE "4:cjc115_3969"
    INDEX 01 00:59:43
  TRACK 49 AUDIO
    TITLE "0:"
    INDEX 01 01:03:53
  TRACK 50 AUDIO
    TITLE "2:cjc115_3970"
    INDEX 01 01:04:60
  TRACK 51 AUDIO
    TITLE "0:"
    INDEX 01 01:06:04
  TRACK 52 AUDIO
    TITLE "3:cjc115_3971"
    INDEX 01 01:06:14
  TRACK 53 AUDIO
    TITLE "0:"
    INDEX 01 01:08:29
  TRACK 54 AUDIO
    TITLE "4:cjc115_3972"
    INDEX 01 01:08:36
  TRACK 55 AUDIO
    TITLE "0:"
    INDEX 01 01:11:19
  TRACK 56 AUDIO
    TITLE "2:cjc115_3973"
    INDEX 01 01:12:26
  TRACK 57 AUDIO
    TITLE "0:"
    INDEX 01 01:13:49
  TRACK 58 AUDIO
    TITLE "3:cjc115_3974"
    INDEX 01 01:13:59
  TRACK 59 AUDIO
    TITLE "0:"
    INDEX 01 01:14:47
  TRACK 60 AUDIO
    TITLE "4:cjc115_3975"
    INDEX 01 01:14:57
  TRACK 61 AUDIO
    TITLE "0:"
    INDEX 01 01:17:73
  TRACK 62 AUDIO
    TITLE "2:cjc115_3976"
    INDEX 01 01:19:01
  TRACK 63 AUDIO
    TITLE "0:"
    INDEX 01 01:20:16
  TRACK 64 AUDIO
    TITLE "3:cjc115_3977"
    INDEX 01 01:20:26
  TRACK 65 AUDIO
    TITLE "0:"
    INDEX 01 01:21:43
  TRACK 66 AUDIO
    TITLE "4:cjc115_3978"
    INDEX 01 01:21:53
  TRACK 67 AUDIO
    TITLE "0:"
    INDEX 01 01:24:14
  TRACK 68 AUDIO
    TITLE "2:cjc115_3979"
    INDEX 01 01:25:23
  TRACK 69 AUDIO
    TITLE "0:"
    INDEX 01 01:26:44
  TRACK 70 AUDIO
    TITLE "3:cjc115_3980"
    INDEX 01 01:26:52
  TRACK 71 AUDIO
    TITLE "0:"
    INDEX 01 01:29:31
  TRACK 72 AUDIO
    TITLE "4:cjc115_3981"
    INDEX 01 01:29:41
  TRACK 73 AUDIO
    TITLE "0:"
    INDEX 01 01:32:70
